<?xml version="1.0" encoding="UTF-8" standalone="no"?>
<!DOCTYPE svg PUBLIC "-//W3C//DTD SVG 1.1//EN"
 "http://www.w3.org/Graphics/SVG/1.1/DTD/svg11.dtd">
<!-- Generated by graphviz version 2.38.0 (20140413.2041)
 -->
<!-- Title: G Pages: 1 -->
<svg width="311pt" height="222pt"
 viewBox="0.00 0.00 311.29 222.00" xmlns="http://www.w3.org/2000/svg" xmlns:xlink="http://www.w3.org/1999/xlink">
<g id="graph0" class="graph" transform="scale(1 1) rotate(0) translate(4 218)">
<title>G</title>
<polygon fill="white" stroke="none" points="-4,4 -4,-218 307.292,-218 307.292,4 -4,4"/>
<g id="clust1" class="cluster"><title>cluster_Global</title>
<path fill="none" stroke="gray" d="M20,-8C20,-8 283.292,-8 283.292,-8 289.292,-8 295.292,-14 295.292,-20 295.292,-20 295.292,-194 295.292,-194 295.292,-200 289.292,-206 283.292,-206 283.292,-206 20,-206 20,-206 14,-206 8,-200 8,-194 8,-194 8,-20 8,-20 8,-14 14,-8 20,-8"/>
<text text-anchor="middle" x="151.646" y="-193.2" font-family="Times,serif" font-size="11.00" fill="gray">Global</text>
</g>
<g id="clust2" class="cluster"><title>cluster_\ctala</title>
<path fill="none" stroke="gray" d="M176.292,-16C176.292,-16 275.292,-16 275.292,-16 281.292,-16 287.292,-22 287.292,-28 287.292,-28 287.292,-166 287.292,-166 287.292,-172 281.292,-178 275.292,-178 275.292,-178 176.292,-178 176.292,-178 170.292,-178 164.292,-172 164.292,-166 164.292,-166 164.292,-28 164.292,-28 164.292,-22 170.292,-16 176.292,-16"/>
<text text-anchor="middle" x="225.792" y="-165.2" font-family="Times,serif" font-size="11.00" fill="gray">ctala</text>
</g>
<g id="clust3" class="cluster"><title>cluster_\ctala\Baremetrics</title>
<path fill="none" stroke="gray" d="M184.292,-24C184.292,-24 267.292,-24 267.292,-24 273.292,-24 279.292,-30 279.292,-36 279.292,-36 279.292,-138 279.292,-138 279.292,-144 273.292,-150 267.292,-150 267.292,-150 184.292,-150 184.292,-150 178.292,-150 172.292,-144 172.292,-138 172.292,-138 172.292,-36 172.292,-36 172.292,-30 178.292,-24 184.292,-24"/>
<text text-anchor="middle" x="225.792" y="-137.2" font-family="Times,serif" font-size="11.00" fill="gray">Baremetrics</text>
</g>
<!-- \\ctala\\Baremetrics\\BareMetrics -->
<g id="node1" class="node"><title>\\ctala\\Baremetrics\\BareMetrics</title>
<polygon fill="none" stroke="black" points="271.292,-122 180.292,-122 180.292,-86 271.292,-86 271.292,-122"/>
<text text-anchor="middle" x="225.792" y="-101.2" font-family="Courier,monospace" font-size="11.00">BareMetrics</text>
</g>
<!-- \\ctala\\Baremetrics\\BareError -->
<g id="node2" class="node"><title>\\ctala\\Baremetrics\\BareError</title>
<polygon fill="none" stroke="black" points="264.292,-68 187.292,-68 187.292,-32 264.292,-32 264.292,-68"/>
<text text-anchor="middle" x="225.792" y="-47.2" font-family="Courier,monospace" font-size="11.00">BareError</text>
</g>
<!-- Exception -->
<g id="node3" class="node"><title>Exception</title>
<ellipse fill="none" stroke="black" cx="62.1459" cy="-50" rx="46.2923" ry="18"/>
<text text-anchor="middle" x="62.1459" y="-46.3" font-family="Times,serif" font-size="14.00" fill="gray">Exception</text>
</g>
<!-- \\ctala\\Baremetrics\\BareError&#45;&gt;Exception -->
<g id="edge1" class="edge"><title>\\ctala\\Baremetrics\\BareError&#45;&gt;Exception</title>
<path fill="none" stroke="black" d="M186.893,-50C166.582,-50 141.175,-50 118.676,-50"/>
<polygon fill="none" stroke="black" points="118.572,-46.5001 108.572,-50 118.572,-53.5001 118.572,-46.5001"/>
</g>
</g>
</svg>
